<?xml version="1.0" encoding="utf-8"?>
<?xml-stylesheet type="text/xsl" href="rss1.xsl"?>
<rss version="2.0" xmlns:atom="http://www.w3.org/2005/Atom" xmlns:content="http://purl.org/rss/1.0/modules/content/" xmlns:dc="http://purl.org/dc/elements/1.1/" xmlns:media="http://search.yahoo.com/mrss/">
<channel>
 <title>Getty</title>
 <link>http://www.gettyimg.com/</link>
 <atom:link href="http://www.gettyimg.com/" rel="self" type="application/rss+xml" />

 
                <item>
                <title><![CDATA[【Albums (lossless)】FLAC - SEVENTEEN -  10th Mini Album FML (QoBuz FLAC 16bits/44.1kHz)]]></title>
                <link><![CDATA[https://sharemania.us/threads/seventeen-10th-mini-album-fml-qobuz-flac-16bits-44-1khz.219675/]]></link>
                <description><![CDATA[<article>
<blockquote class="messageText SelectQuoteContainer ugc baseHtml">
<img src="https://media.cdnws.com/_i/209718/9073/2136/73/seventeen-fml-kit-album-packaging-cover.jpeg" class="bbCodeImage LbImage" alt="[​IMG]" data-url="https://media.cdnws.com/_i/209718/9073/2136/73/seventeen-fml-kit-album-packaging-cover.jpeg" style=""><br>
<br>
FML is the 10th mini album by SEVENTEEN. It was released on April 24, 2023 with "F*ck My Life" and "Super" serving as the album's double title tracks.<br>
The physical album comes in four versions: A (Fallen, Misfit, Lost), B (Faded Mono Life), C (Fight for My Life), Carat and Kit.<br>
<br>
<div data-s9e-mediaembed="youtube" style="display:inline-block;width:100%;max-width:640px"><div style="overflow:hidden;position:relative;padding-bottom:56.25%"><iframe allowfullscreen="" scrolling="no" style="background:url(https://i.ytimg.com/vi/-GQg25oP0S4/hqdefault.jpg) 50% 50% / cover;border:0;height:100%;left:0;position:absolute;width:100%" src="https://www.youtube.com/embed/-GQg25oP0S4"></iframe></div></div><br>
<br>
<b>Track list</b><br>
"F*ck My Life" - 3:22<br>
"Super (손오공)" - 3:20<br>
"Fire" (Hip-Hop team) - 2:38<br>
"I Don't Understand But I Love It" (Performance team) - 3:29<br>
"Dust (먼지)" (Vocal team) - 2:45<br>
"April Shower" - 3:32<br>
<br>
<div class="bbCodeBlock bbCodeVfcHH HiddenContent">
<div class="attribution type">Hidden Content:</div>
<blockquote>You must either reply or click 'Like' to see the hidden information contained here.</blockquote>
</div>
<div class="messageTextEndMarker">&nbsp;</div>
</blockquote>
</article>]]></description>
                <author><![CDATA[Eric Lyn]]></author>
                </item>

                
                <item>
                <title><![CDATA[【Cinema Center】MOVIE - Twitches.2005.1080p.DSNP.WEB-DL.DDP5.1.H.264-Samuel]]></title>
                <link><![CDATA[https://sharemania.us/threads/twitches-2005-1080p-dsnp-web-dl-ddp5-1-h-264-samuel.219674/]]></link>
                <description><![CDATA[<article>
<blockquote class="messageText SelectQuoteContainer ugc baseHtml">
<div style="text-align: center"><b><span style="font-size: 26px">Twitches</span></b><br>
<img src="https://i.imgur.com/PkWRWGX.jpg" class="bbCodeImage LbImage" alt="[​IMG]" data-url="https://i.imgur.com/PkWRWGX.jpg" style=""><br>
<b><a href="https://i.imgur.com/3PQTwTf.png" target="_blank" class="externalLink" rel="nofollow">Alternate Artwork 1</a></b> | <b><a href="https://i.imgur.com/mcdQ7zJ.jpg" target="_blank" class="externalLink" rel="nofollow">Alternate Artwork 2</a></b> | <b><a href="https://i.imgur.com/fhTp32u.png" target="_blank" class="externalLink" rel="nofollow">Alternate Artwork 3</a></b> | <b><a href="https://i.imgur.com/c1SB8h1.jpg" target="_blank" class="externalLink" rel="nofollow">Alternate Artwork 4</a></b> | <b><a href="https://i.imgur.com/yZRb01l.png" target="_blank" class="externalLink" rel="nofollow">Poster 1</a></b>| <b><a href="https://i.imgur.com/Z5wyrj4.jpg" target="_blank" class="externalLink" rel="nofollow">Poster 2</a></b> | <b><a href="https://i.imgur.com/g2xQ5eY.jpg" target="_blank" class="externalLink" rel="nofollow">Key Art</a></b><br>
<br>
<img src="https://i.imgur.com/e1npQoj.png" class="bbCodeImage LbImage" alt="[​IMG]" data-url="https://i.imgur.com/e1npQoj.png" style=""> <img src="https://i.imgur.com/7fGo0Si.png" class="bbCodeImage LbImage" alt="[​IMG]" data-url="https://i.imgur.com/7fGo0Si.png" style=""> <img src="https://i.imgur.com/AtOIaDi.png" class="bbCodeImage LbImage" alt="[​IMG]" data-url="https://i.imgur.com/AtOIaDi.png" style=""><br>
2005 • 1h 27m<br>
Comedy, Fantasy<br>
<br>
<div class="bbCodeBlock bbCodeQuote">
<aside>
<blockquote class="quoteContainer"><div class="quote"><b><span style="font-size: 15px"><span style="font-family: 'Arial'">Description</span></span></b><br>
On their 21st birthday, reunited twins Alex and Camryn discover that their unusual powers double in strength when they work together.</div><div class="quoteExpand">Click to expand...</div></blockquote>
</aside>
</div>
<div class="bbCodeBlock bbCodeQuote">
<aside>
<blockquote class="quoteContainer"><div class="quote"><b><span style="font-size: 15px"><span style="font-family: 'Arial'">Trailers</span></span></b><br>
<div data-s9e-mediaembed="googledrive" style="display:inline-block;width:100%;max-width:640px"><div style="overflow:hidden;position:relative;padding-bottom:75%"><iframe allowfullscreen="" scrolling="no" src="//drive.google.com/file/d/1uNLSbXXXvJnQ3FmrLVljjfuqZcMFSaTk/preview" style="border:0;height:100%;left:0;position:absolute;width:100%"></iframe></div></div></div><div class="quoteExpand quoteCut">Click to expand...</div></blockquote>
</aside>
</div>
<div class="bbCodeBlock bbCodeQuote">
<aside>
<blockquote class="quoteContainer"><div class="quote"><b><span style="font-size: 15px"><span style="font-family: 'Arial'">More Information</span></span></b><br>
<b>Long Description:</b><br>
The enchanting best-selling book series comes to life in the Disney Channel Original Movie Twitches. Superstar twin sisters Tia and Tamera Mowry star as "twitches," twin witches who were separated at birth. On their 21st birthday, Alex (Tia) and Camryn (Tamera) reunite and discover that their unusual powers double in strength when they work together. Get caught in their spell as they work their magic to save everyone they love and fulfill their destiny.<br>
<b>Duration:</b> 1h 27m<br>
<b>Release Date:</b> 2005<br>
<b>Genre:</b> Comedy, Fantasy<br>
<b>Rating:</b> <img src="https://i.imgur.com/e1npQoj.png" class="bbCodeImage LbImage" alt="[​IMG]" data-url="https://i.imgur.com/e1npQoj.png" style=""><br>
<b>Director:</b> Stuart Gillard<br>
<b>Starring:</b> Tia Mowry, Tamera Mowry, Kristen Wilson, Patrick Fabian, Pat Kelly, Jennifer Robertson</div><div class="quoteExpand quoteCut">Click to expand...</div></blockquote>
</aside>
</div>
<div class="bbCodeBlock bbCodeQuote">
<aside>
<blockquote class="quoteContainer"><div class="quote"><b><b><span style="font-size: 15px">Source</span></b></b><br>
<img src="https://i.imgur.com/zIQLtMk.png" class="bbCodeImage LbImage" alt="[​IMG]" data-url="https://i.imgur.com/zIQLtMk.png" style=""></div><div class="quoteExpand">Click to expand...</div></blockquote>
</aside>
</div>
<div class="bbCodeBlock bbCodeQuote">
<aside>
<blockquote class="quoteContainer"><div class="quote"><b><b><span style="font-size: 15px">Release Name</span></b></b><br>
Twitches.2005.1080p.DSNP.WEB-DL.DDP5.1.H.264-Samuel</div><div class="quoteExpand">Click to expand...</div></blockquote>
</aside>
</div>
<div class="ToggleTriggerAnchor bbCodeSpoilerContainer">
<button type="button" class="button bbCodeSpoilerButton ToggleTrigger Tooltip JsOnly" data-target="> .SpoilerTarget"><span>Spoiler: <span class="SpoilerTitle">Media Information</span></span></button>
<div class="SpoilerTarget bbCodeSpoilerText">General<br>
Complete name : Twitches.2005.1080p.DSNP.WEB-DL.DDP5.1.H.264-Samuel.mkv<br>
Format : Matroska<br>
Format version : Version 4<br>
File size : 4.95 GiB<br>
Duration : 1 h 26 min<br>
Overall bit rate mode : Variable<br>
Overall bit rate : 8 209 kb/s<br>
Frame rate : 23.976 FPS<br>
Encoded date : 2023-04-24 10:42:54 UTC<br>
Writing application : mkvmerge v72.0.0 ('Minuano (Six-eight)') 64-bit<br>
Writing library : libebml v1.4.4 + libmatroska v1.7.1<br>
<br>
Video<br>
ID : 1<br>
Format : AVC<br>
Format/Info : Advanced Video Codec<br>
Format profile : High@L4<br>
Format settings : CABAC / 4 Ref Frames<br>
Format settings, CABAC : Yes<br>
Format settings, Reference frames : 4 frames<br>
Codec ID : V_MPEG4/ISO/AVC<br>
Duration : 1 h 26 min<br>
Bit rate mode : Variable<br>
Bit rate : 6 182 kb/s<br>
Maximum bit rate : 12.7 Mb/s<br>
Width : 1 920 pixels<br>
Height : 1 080 pixels<br>
Display aspect ratio : 16:9<br>
Frame rate mode : Constant<br>
Frame rate : 23.976 (24000/1001) FPS<br>
Color space : YUV<br>
Chroma subsampling : 4:2:0<br>
Bit depth : 8 bits<br>
Scan type : Progressive<br>
Bits/(Pixel*Frame) : 0.124<br>
Stream size : 3.73 GiB (75%)<br>
Default : Yes<br>
Forced : No<br>
Color range : Limited<br>
Color primaries : BT.709<br>
Transfer characteristics : BT.709<br>
Matrix coefficients : BT.709<br>
<br>
Audio #1<br>
ID : 2<br>
Format : E-AC-3<br>
Format/Info : Enhanced AC-3<br>
Commercial name : Dolby Digital Plus<br>
Codec ID : A_EAC3<br>
Duration : 1 h 26 min<br>
Bit rate mode : Constant<br>
Bit rate : 256 kb/s<br>
Channel(s) : 6 channels<br>
Channel layout  : L R C LFE Ls Rs<br>
Sampling rate : 48.0 kHz<br>
Frame rate : 31.250 FPS (1536 SPF)<br>
Compression mode : Lossy<br>
Stream size : 158 MiB (3%)<br>
Language : English<br>
Service kind : Complete Main<br>
Default : Yes<br>
Forced : No<br>
<br>
Audio #2<br>
ID : 3<br>
Format : AAC LC<br>
Format/Info : Advanced Audio Codec Low Complexity<br>
Codec ID : A_AAC-2<br>
Duration : 1 h 26 min<br>
Bit rate : 125 kb/s<br>
Channel(s) : 2 channels<br>
Channel layout : L R<br>
Sampling rate : 48.0 kHz<br>
Frame rate : 46.875 FPS (1024 SPF)<br>
Compression mode : Lossy<br>
Stream size : 77.4 MiB (2%)<br>
Title : Audio Description<br>
Language : English<br>
Default : No<br>
Forced : No<br>
<br>
Audio #3<br>
ID : 4<br>
Format : AAC LC<br>
Format/Info : Advanced Audio Codec Low Complexity<br>
Codec ID : A_AAC-2<br>
Duration : 1 h 26 min<br>
Bit rate : 125 kb/s<br>
Channel(s) : 2 channels<br>
Channel layout : L R<br>
Sampling rate : 48.0 kHz<br>
Frame rate : 46.875 FPS (1024 SPF)<br>
Compression mode : Lossy<br>
Stream size : 77.4 MiB (2%)<br>
Language : Czech<br>
Default : No<br>
Forced : No<br>
<br>
Audio #4<br>
ID : 5<br>
Format : AAC LC<br>
Format/Info : Advanced Audio Codec Low Complexity<br>
Codec ID : A_AAC-2<br>
Duration : 1 h 26 min<br>
Bit rate : 125 kb/s<br>
Channel(s) : 2 channels<br>
Channel layout : L R<br>
Sampling rate : 48.0 kHz<br>
Frame rate : 46.875 FPS (1024 SPF)<br>
Compression mode : Lossy<br>
Stream size : 77.4 MiB (2%)<br>
Language : German<br>
Default : No<br>
Forced : No<br>
<br>
Audio #5<br>
ID : 6<br>
Format : AAC LC<br>
Format/Info : Advanced Audio Codec Low Complexity<br>
Codec ID : A_AAC-2<br>
Duration : 1 h 26 min<br>
Bit rate : 125 kb/s<br>
Channel(s) : 2 channels<br>
Channel layout : L R<br>
Sampling rate : 48.0 kHz<br>
Frame rate : 46.875 FPS (1024 SPF)<br>
Compression mode : Lossy<br>
Stream size : 77.4 MiB (2%)<br>
Language : Greek<br>
Default : No<br>
Forced : No<br>
<br>
Audio #6<br>
ID : 7<br>
Format : AAC LC<br>
Format/Info : Advanced Audio Codec Low Complexity<br>
Codec ID : A_AAC-2<br>
Duration : 1 h 26 min<br>
Bit rate : 125 kb/s<br>
Channel(s) : 2 channels<br>
Channel layout : L R<br>
Sampling rate : 48.0 kHz<br>
Frame rate : 46.875 FPS (1024 SPF)<br>
Compression mode : Lossy<br>
Stream size : 77.4 MiB (2%)<br>
Title : Latin American<br>
Language : Spanish<br>
Default : No<br>
Forced : No<br>
<br>
Audio #7<br>
ID : 8<br>
Format : AAC LC<br>
Format/Info : Advanced Audio Codec Low Complexity<br>
Codec ID : A_AAC-2<br>
Duration : 1 h 26 min<br>
Bit rate : 125 kb/s<br>
Channel(s) : 2 channels<br>
Channel layout : L R<br>
Sampling rate : 48.0 kHz<br>
Frame rate : 46.875 FPS (1024 SPF)<br>
Compression mode : Lossy<br>
Stream size : 77.4 MiB (2%)<br>
Title : European<br>
Language : Spanish<br>
Default : No<br>
Forced : No<br>
<br>
Audio #8<br>
ID : 9<br>
Format : AAC LC<br>
Format/Info : Advanced Audio Codec Low Complexity<br>
Codec ID : A_AAC-2<br>
Duration : 1 h 26 min<br>
Bit rate : 125 kb/s<br>
Channel(s) : 2 channels<br>
Channel layout : L R<br>
Sampling rate : 48.0 kHz<br>
Frame rate : 46.875 FPS (1024 SPF)<br>
Compression mode : Lossy<br>
Stream size : 77.4 MiB (2%)<br>
Language : French<br>
Default : No<br>
Forced : No<br>
<br>
Audio #9<br>
ID : 10<br>
Format : AAC LC<br>
Format/Info : Advanced Audio Codec Low Complexity<br>
Codec ID : A_AAC-2<br>
Duration : 1 h 26 min<br>
Bit rate : 125 kb/s<br>
Channel(s) : 2 channels<br>
Channel layout : L R<br>
Sampling rate : 48.0 kHz<br>
Frame rate : 46.875 FPS (1024 SPF)<br>
Compression mode : Lossy<br>
Stream size : 77.4 MiB (2%)<br>
Language : Hungarian<br>
Default : No<br>
Forced : No<br>
<br>
Audio #10<br>
ID : 11<br>
Format : AAC LC<br>
Format/Info : Advanced Audio Codec Low Complexity<br>
Codec ID  : A_AAC-2<br>
Duration : 1 h 26 min<br>
Bit rate : 125 kb/s<br>
Channel(s) : 2 channels<br>
Channel layout : L R<br>
Sampling rate : 48.0 kHz<br>
Frame rate : 46.875 FPS (1024 SPF)<br>
Compression mode : Lossy<br>
Stream size : 77.4 MiB (2%)<br>
Language : Italian<br>
Default : No<br>
Forced : No<br>
<br>
Audio #11<br>
ID : 12<br>
Format : AAC LC<br>
Format/Info : Advanced Audio Codec Low Complexity<br>
Codec ID : A_AAC-2<br>
Duration : 1 h 26 min<br>
Bit rate : 125 kb/s<br>
Channel(s) : 2 channels<br>
Channel layout : L R<br>
Sampling rate : 48.0 kHz<br>
Frame rate : 46.875 FPS (1024 SPF)<br>
Compression mode : Lossy<br>
Stream size : 77.4 MiB (2%)<br>
Language : Japanese<br>
Default : No<br>
Forced : No<br>
<br>
Audio #12<br>
ID : 13<br>
Format : AAC LC<br>
Format/Info : Advanced Audio Codec Low Complexity<br>
Codec ID : A_AAC-2<br>
Duration : 1 h 26 min<br>
Bit rate : 125 kb/s<br>
Channel(s) : 2 channels<br>
Channel layout : L R<br>
Sampling rate : 48.0 kHz<br>
Frame rate : 46.875 FPS (1024 SPF)<br>
Compression mode : Lossy<br>
Stream size : 77.4 MiB (2%)<br>
Language : Dutch<br>
Default : No<br>
Forced : No<br>
<br>
Audio #13<br>
ID : 14<br>
Format : AAC LC<br>
Format/Info : Advanced Audio Codec Low Complexity<br>
Codec ID : A_AAC-2<br>
Duration : 1 h 26 min<br>
Bit rate : 125 kb/s<br>
Channel(s) : 2 channels<br>
Channel layout : L R<br>
Sampling rate : 48.0 kHz<br>
Frame rate : 46.875 FPS (1024 SPF)<br>
Compression mode : Lossy<br>
Stream size : 77.4 MiB (2%)<br>
Language : Polish<br>
Default : No<br>
Forced : No<br>
<br>
Audio #14<br>
ID : 15<br>
Format : AAC LC<br>
Format/Info : Advanced Audio Codec Low Complexity<br>
Codec ID : A_AAC-2<br>
Duration : 1 h 26 min<br>
Bit rate : 125 kb/s<br>
Channel(s) : 2 channels<br>
Channel layout : L R<br>
Sampling rate : 48.0 kHz<br>
Frame rate : 46.875 FPS (1024 SPF)<br>
Compression mode : Lossy<br>
Stream size : 77.4 MiB (2%)<br>
Title : Brazilian<br>
Language : Portuguese<br>
Default : No<br>
Forced : No<br>
<br>
Audio #15<br>
ID : 16<br>
Format : AAC LC<br>
Format/Info : Advanced Audio Codec Low Complexity<br>
Codec ID : A_AAC-2<br>
Duration : 1 h 26 min<br>
Bit rate : 125 kb/s<br>
Channel(s) : 2 channels<br>
Channel layout : L R<br>
Sampling rate : 48.0 kHz<br>
Frame rate : 46.875 FPS (1024 SPF)<br>
Compression mode : Lossy<br>
Stream size : 77.4 MiB (2%)<br>
Language : Romanian<br>
Default : No<br>
Forced : No<br>
<br>
Text #1<br>
ID : 17<br>
Format : UTF-8<br>
Codec ID : S_TEXT/UTF8<br>
Codec ID/Info : UTF-8 Plain Text<br>
Duration : 1 h 24 min<br>
Bit rate : 79 b/s<br>
Frame rate : 0.277 FPS<br>
Count of elements : 1411<br>
Stream size : 49.6 KiB (0%)<br>
Title : SDH<br>
Language : English<br>
Default : No<br>
Forced : No<br>
<br>
Text #2<br>
ID : 18<br>
Format : UTF-8<br>
Codec ID : S_TEXT/UTF8<br>
Codec ID/Info : UTF-8 Plain Text<br>
Duration : 1 h 24 min<br>
Bit rate : 70 b/s<br>
Frame rate : 0.284 FPS<br>
Count of elements : 1447<br>
Stream size : 44.0 KiB (0%)<br>
Language : Czech<br>
Default : No<br>
Forced : No<br>
<br>
Text #3<br>
ID : 19<br>
Format : UTF-8<br>
Codec ID : S_TEXT/UTF8<br>
Codec ID/Info : UTF-8 Plain Text<br>
Duration : 1 h 26 min<br>
Bit rate : 63 b/s<br>
Frame rate : 0.256 FPS<br>
Count of elements : 1324<br>
Stream size : 40.0 KiB (0%)<br>
Language : Danish<br>
Default : No<br>
Forced : No<br>
<br>
Text #4<br>
ID : 20<br>
Format : UTF-8<br>
Codec ID : S_TEXT/UTF8<br>
Codec ID/Info : UTF-8 Plain Text<br>
Duration : 37 min 15 s<br>
Bit rate : 0 b/s<br>
Frame rate : 0.004 FPS<br>
Count of elements : 8<br>
Stream size : 165 Bytes (0%)<br>
Title : Forced<br>
Language : German<br>
Default : No<br>
Forced : Yes<br>
<br>
Text #5<br>
ID : 21<br>
Format : UTF-8<br>
Codec ID : S_TEXT/UTF8<br>
Codec ID/Info : UTF-8 Plain Text<br>
Duration : 1 h 25 min<br>
Bit rate : 125 b/s<br>
Frame rate : 0.264 FPS<br>
Count of elements : 1344<br>
Stream size : 78.3 KiB (0%)<br>
Language : Greek<br>
Default : No<br>
Forced : No<br>
<br>
Text #6<br>
ID : 22<br>
Format : UTF-8<br>
Codec ID : S_TEXT/UTF8<br>
Codec ID/Info : UTF-8 Plain Text<br>
Duration : 1 h 7 min<br>
Bit rate : 0 b/s<br>
Frame rate : 0.002 FPS<br>
Count of elements : 7<br>
Stream size : 126 Bytes (0%)<br>
Title : Latin American (Forced)<br>
Language : Spanish<br>
Default : No<br>
Forced : Yes<br>
<br>
Text #7<br>
ID : 23<br>
Format : UTF-8<br>
Codec ID : S_TEXT/UTF8<br>
Codec ID/Info : UTF-8 Plain Text<br>
Duration : 1 h 9 min<br>
Bit rate : 0 b/s<br>
Frame rate : 0.003 FPS<br>
Count of elements : 11<br>
Stream size : 229 Bytes (0%)<br>
Title : European (Forced)<br>
Language : Spanish<br>
Default : No<br>
Forced : Yes<br>
<br>
Text #8<br>
ID : 24<br>
Format : UTF-8<br>
Codec ID : S_TEXT/UTF8<br>
Codec ID/Info : UTF-8 Plain Text<br>
Duration : 1 h 24 min<br>
Bit rate : 68 b/s<br>
Frame rate : 0.261 FPS<br>
Count of elements : 1332<br>
Stream size : 42.9 KiB (0%)<br>
Language : Finnish<br>
Default : No<br>
Forced : No<br>
<br>
Text #9<br>
ID : 25<br>
Format : UTF-8<br>
Codec ID : S_TEXT/UTF8<br>
Codec ID/Info : UTF-8 Plain Text<br>
Duration : 1 h 9 min<br>
Bit rate : 0 b/s<br>
Frame rate : 0.002 FPS<br>
Count of elements : 7<br>
Stream size : 107 Bytes (0%)<br>
Title : Forced<br>
Language : French<br>
Default : No<br>
Forced : Yes<br>
<br>
Text #10<br>
ID : 26<br>
Format : UTF-8<br>
Codec ID : S_TEXT/UTF8<br>
Codec ID/Info : UTF-8 Plain Text<br>
Duration : 1 h 25 min<br>
Bit rate : 99 b/s<br>
Frame rate : 0.341 FPS<br>
Count of elements : 1747<br>
Stream size : 62.1 KiB (0%)<br>
Title : SDH<br>
Language : French<br>
Default : No<br>
Forced : No<br>
<br>
Text #11<br>
ID : 27<br>
Format : UTF-8<br>
Codec ID : S_TEXT/UTF8<br>
Codec ID/Info : UTF-8 Plain Text<br>
Duration : 1 h 25 min<br>
Bit rate : 68 b/s<br>
Frame rate : 0.218 FPS<br>
Count of elements : 1112<br>
Stream size : 42.7 KiB (0%)<br>
Language : Hungarian<br>
Default : No<br>
Forced : No<br>
<br>
Text #12<br>
ID : 28<br>
Format : UTF-8<br>
Codec ID : S_TEXT/UTF8<br>
Codec ID/Info : UTF-8 Plain Text<br>
Duration : 1 h 8 min<br>
Bit rate : 0 b/s<br>
Frame rate : 0.003 FPS<br>
Count of elements : 11<br>
Stream size : 173 Bytes (0%)<br>
Title : Forced<br>
Language : Italian<br>
Default : No<br>
Forced : Yes<br>
<br>
Text #13<br>
ID : 29<br>
Format : UTF-8<br>
Codec ID : S_TEXT/UTF8<br>
Codec ID/Info : UTF-8 Plain Text<br>
Duration : 1 h 25 min<br>
Bit rate : 73 b/s<br>
Frame rate : 0.287 FPS<br>
Count of elements : 1472<br>
Stream size : 45.8 KiB (0%)<br>
Language : Korean<br>
Default : No<br>
Forced : No<br>
<br>
Text #14<br>
ID : 30<br>
Format : UTF-8<br>
Codec ID : S_TEXT/UTF8<br>
Codec ID/Info : UTF-8 Plain Text<br>
Duration : 1 h 24 min<br>
Bit rate : 58 b/s<br>
Frame rate : 0.168 FPS<br>
Count of elements : 857<br>
Stream size : 36.3 KiB (0%)<br>
Language : Dutch<br>
Default : No<br>
Forced : No<br>
<br>
Text #15<br>
ID : 31<br>
Format : UTF-8<br>
Codec ID : S_TEXT/UTF8<br>
Codec ID/Info : UTF-8 Plain Text<br>
Duration : 1 h 22 min<br>
Bit rate : 0 b/s<br>
Frame rate : 0.001 FPS<br>
Count of elements : 4<br>
Stream size : 98.0 Bytes (0%)<br>
Title : Forced<br>
Language : Dutch<br>
Default : No<br>
Forced : Yes<br>
<br>
Text #16<br>
ID : 32<br>
Format : UTF-8<br>
Codec ID : S_TEXT/UTF8<br>
Codec ID/Info : UTF-8 Plain Text<br>
Duration : 1 h 24 min<br>
Bit rate : 72 b/s<br>
Frame rate : 0.267 FPS<br>
Count of elements : 1361<br>
Stream size : 45.1 KiB (0%)<br>
Language : Norwegian<br>
Default : No<br>
Forced : No<br>
<br>
Text #17<br>
ID : 33<br>
Format : UTF-8<br>
Codec ID : S_TEXT/UTF8<br>
Codec ID/Info : UTF-8 Plain Text<br>
Duration : 1 h 24 min<br>
Bit rate : 59 b/s<br>
Frame rate : 0.266 FPS<br>
Count of elements : 1355<br>
Stream size : 37.2 KiB (0%)<br>
Language : Polish<br>
Default : No<br>
Forced : No<br>
<br>
Text #18<br>
ID : 34<br>
Format : UTF-8<br>
Codec ID : S_TEXT/UTF8<br>
Codec ID/Info : UTF-8 Plain Text<br>
Duration : 1 h 24 min<br>
Bit rate : 66 b/s<br>
Frame rate : 0.235 FPS<br>
Count of elements : 1195<br>
Stream size : 41.1 KiB (0%)<br>
Title : Brazilian<br>
Language : Portuguese<br>
Default : No<br>
Forced : No<br>
<br>
Text #19<br>
ID : 35<br>
Format : UTF-8<br>
Codec ID : S_TEXT/UTF8<br>
Codec ID/Info : UTF-8 Plain Text<br>
Duration : 55 min 50 s<br>
Bit rate : 0 b/s<br>
Frame rate : 0.002 FPS<br>
Count of elements : 6<br>
Stream size : 109 Bytes (0%)<br>
Title : Brazilian (Forced)<br>
Language : Portuguese<br>
Default : No<br>
Forced : Yes<br>
<br>
Text #20<br>
ID : 36<br>
Format : UTF-8<br>
Codec ID : S_TEXT/UTF8<br>
Codec ID/Info : UTF-8 Plain Text<br>
Duration : 1 h 26 min<br>
Bit rate : 65 b/s<br>
Frame rate : 0.255 FPS<br>
Count of elements : 1319<br>
Stream size : 41.1 KiB (0%)<br>
Title : European<br>
Language : Portuguese<br>
Default : No<br>
Forced : No<br>
<br>
Text #21<br>
ID : 37<br>
Format : UTF-8<br>
Codec ID : S_TEXT/UTF8<br>
Codec ID/Info : UTF-8 Plain Text<br>
Duration : 1 h 24 min<br>
Bit rate : 67 b/s<br>
Frame rate : 0.188 FPS<br>
Count of elements : 956<br>
Stream size : 41.8 KiB (0%)<br>
Language : Romanian<br>
Default : No<br>
Forced : No<br>
<br>
Text #22<br>
ID : 38<br>
Format : UTF-8<br>
Codec ID : S_TEXT/UTF8<br>
Codec ID/Info : UTF-8 Plain Text<br>
Duration : 1 h 24 min<br>
Bit rate : 80 b/s<br>
Frame rate : 0.267 FPS<br>
Count of elements : 1360<br>
Stream size : 49.8 KiB (0%)<br>
Language : Swedish<br>
Default : No<br>
Forced : No<br>
<br>
Text #23<br>
ID : 39<br>
Format : UTF-8<br>
Codec ID : S_TEXT/UTF8<br>
Codec ID/Info : UTF-8 Plain Text<br>
Duration : 1 h 24 min<br>
Bit rate : 66 b/s<br>
Frame rate : 0.296 FPS<br>
Count of elements : 1508<br>
Stream size : 41.4 KiB (0%)<br>
Language : Turkish<br>
Default : No<br>
Forced : No<br>
<br>
Menu<br>
01:25:29.000 : en:Credits</div>
</div><br>
<b>Screenshots</b><br>
<img src="https://i.imgur.com/AyOLjwp.png" class="bbCodeImage LbImage" alt="[​IMG]" data-url="https://i.imgur.com/AyOLjwp.png" style=""><br>
<br>
<b>Download</b><br>
<div class="bbCodeBlock bbCodeVfcHH HiddenContent">
<div class="attribution type">Hidden Content:</div>
<blockquote>You must reply before you can see the hidden data contained here.</blockquote>
</div></div>
<div class="messageTextEndMarker">&nbsp;</div>
</blockquote>
</article>]]></description>
                <author><![CDATA[Samuel]]></author>
                </item>

                </channel></rss>